<svg width="12619" height="1998" xmlns="http://www.w3.org/2000/svg"><defs><style>.fil0{fill:#4d311f;fill-rule:nonzero}</style></defs><title>background</title><path fill="none" id="canvas_background" d="M-1-1h12621v2000H-1z"/><title>Layer 1</title><g id="Слой_x0020_1"><path id="svg_1" d="M524 369c-44 99-3 190 88 259-213 83-342 241-391 405-86 292 85 559 380 582 223 18 402-125 541-294 104-126 184-264 246-364 6-8-10-15-15-6-60 95-143 236-246 359-140 169-316 308-518 279-96-13-173-71-225-175-57-119-62-260-23-392 44-153 145-294 279-374 55 34 143 84 212 58 57-21 60-93 3-117-62-26-158 9-217 29-65-72-63-163-19-243 135 11 296 37 425 37 150 0 230-80 228-156-3-78-91-158-275-141-101 9-209 39-297 85-75 39-138 91-171 156-166-9-399-18-489 82-19 22-32 48-37 78-2 28 31 41 44 17 13-26-36-28-5-73 70-102 269-102 482-91zm466-234c171-28 264 45 266 123 3 70-75 141-212 141-127 0-285-26-417-37 29-47 68-91 117-125 70-50 155-87 246-102zM847 600c47 22 44 76-2 95-57 22-145-23-187-58 49-26 135-63 189-37z" class="fil0"/><path d="M2059 951c-83 138-186 210-298 162 18-37 52-140 52-216 0-180-207-180-212-11-3 89 49 186 139 234-46 101-98 171-157 203-44 24-81 24-101-21-26-57-3-223 23-397 5-36-124-39-132 3-21 99-67 441 137 450 109 4 194-119 246-232 109 41 215 0 318-169 6-8-10-15-15-6zm-313 156c-83-48-130-137-127-223 5-150 176-147 176 11 0 69-23 151-49 212z" class="fil0" id="1"/><path d="M2408 1334c37-156 70-310 114-474 11-39-121-41-132 0l-5 19c-88-45-173-39-241-2-93 50-139 150-145 236-10 147 130 210 207 126 24-26 68-83 133-186-34 127-44 199-73 351-140 82-365 199-399 391-13 80 11 177 119 184 231 13 332-278 381-467 16-54 26-106 39-159 134-80 246-151 388-396 5-8-10-15-15-6-138 234-241 307-371 383zm-246 437c-46 98-95 171-170 182-109 17-119-98-109-154 34-189 267-311 380-376-20 100-51 244-101 348zm195-788c-39 70-101 165-148 225-34 44-65 52-80 29-39-78 49-312 147-355 31-13 68-11 104 13l-23 88z" class="fil0" id="2"/><path d="M2885 994c46 0 98-11 140-32 41-22 69-63 51-98-20-39-98-41-150-24-191 63-266 284-212 418 26 65 91 102 171 100 173-5 318-240 411-401 6-8-10-15-15-6-75 130-223 370-368 385-124 13-93-214-28-342zm127-138c67-13 70 60 2 95-36 19-80 28-121 28 31-65 72-115 119-123z" class="fil0" id="3"/><path d="M4037 951c-96 158-210 309-277 368-11 8-29 28-39 8-28-49 18-190 34-300 7-61 23-169-60-193-44-13-72 4-98 32-29 31-65 96-81 122l-160 290c-70 130 62-364 65-370 10-42-122-42-135 0-23 90-49 194-65 292-10 58-2 132 75 134 52 2 68-32 86-65 54-102 96-173 147-268 39-72 140-238 101-46-20 98-93 351 68 396 31 9 51 0 75-21 70-67 171-191 279-373 6-8-10-15-15-6z" class="fil0" id="4"/><path d="M4782 951c-139 234-230 307-354 383l96-476c10-39-122-41-135 0-29 93-158 376-264 439-18 11-29 2-31-17-5-59 39-230 83-370 10-44-125-44-135-2-18 67-49 203-49 292 0 67 41 169 140 110 90-54 194-253 235-350l-83 443c-139 83-365 200-398 392-13 80 10 177 119 184 230 13 331-278 380-467 16-54 26-107 39-159 135-80 228-151 373-396 5-8-10-15-16-6zm-499 474c-29 141-73 309-145 428-91 145-259 132-233-54 28-189 264-309 378-374z" class="fil0" id="5"/><path d="M6753 336c-34-195-262-229-451-76-62-197-310-259-497-151-155 91-173 279-47 394 52 47 135 82 223 82 36 0 49-35 16-41-29-2-31 32-91 17-52-13-98-34-135-69-119-106-103-281 42-366 204-119 401-2 396 232-5 240-122 716-269 1028-65 138-200 294-376 249-33-9-62-26-83-46-41-39-5-54-20-75-21-22-52 0-39 28 23 47 67 86 137 106 205 56 391-100 474-225 122-182 189-388 238-591 272 95 275 415 326 634 24 102 101 234 288 156 10-4 5-15-5-13-125 32-164-56-192-175-29-120-54-299-142-433-57-85-151-154-249-178 280-26 497-251 456-487zm-446-56c107-93 275-145 321 19 57 204-70 496-349 509 46-197 62-383 28-528z" class="fil0" id="6"/><path d="M7703 951c-96 158-210 309-277 368-11 8-29 28-39 8-44-75 47-357 65-461 7-49-122-47-138-4-51 143-157 275-214 344-34 41-65 67-86 83-34 23-46 4-44-26 5-72 42-221 80-355 11-42-121-42-134 0-24 88-52 220-47 311 3 74 55 141 150 85 26-15 60-46 96-89 83-102 135-173 181-260-20 98-93 351 68 396 31 9 51 0 75-21 70-67 171-191 279-373 6-8-10-15-15-6z" class="fil0" id="7"/><path d="M7620 1323c-8 48 96 54 122 9 23-41 142-305 194-377 132-179 98 165-60 193-23 4-28 19-5 26 91 24 5 208 60 277 36 45 95 47 139 6 127-119 288-411 342-500 5-8-10-15-15-6-86 141-228 387-337 493-101 100 10-264-111-290 272-82 132-428-29-205-46 67-163 316-163 311l83-348c111-93 205-206 277-314 96-143 166-312 137-437-8-35-33-48-72-48-119 0-215 108-262 193-132 234-233 599-300 1017zm541-1169c44-32 70-23 78 11 26 117-44 286-135 424-67 106-179 230-259 299 62-281 168-625 316-734z" class="fil0" id="8"/><path d="M9088 951c-106 177-192 283-256 351-32 30-68 54-63-18 6-73 47-251 94-424 10-39-127-41-138 0l-5 19c-88-45-173-39-241-2-93 50-139 150-145 236-10 147 130 210 208 126 25-28 70-89 139-199-25 104-23 238 11 283 33 46 90 50 153-11 56-58 150-175 258-355 6-8-10-15-15-6zm-396 32c-39 70-101 165-148 225-33 44-67 52-80 29-44-76 49-312 148-355 31-13 67-11 103 13l-23 88z" class="fil0" id="9"/><path d="M9774 951c-83 138-186 210-298 162 18-37 52-140 52-216 0-180-207-180-212-11-3 89 49 186 140 234-47 101-99 171-158 203-44 24-81 24-101-21-26-57-3-223 23-397 5-36-124-39-132 3-21 99-67 441 137 450 109 4 194-119 246-232 109 41 215 0 318-169 6-8-10-15-15-6zm-313 156c-83-48-130-137-127-223 5-150 176-147 176 11 0 69-23 151-49 212z" class="fil0" id="10"/><path d="M10196 957c5-8-10-15-16-6-116 188-246 314-290 353-36 32-67 30-62-24 8-104 47-236 86-370 13-41-122-46-135-2-21 67-65 225-54 331 8 86 88 153 178 75 96-84 231-253 293-357zm-313-132c39 0 67-26 67-58 0-30-28-56-67-56s-68 26-68 56c0 32 29 58 68 58z" class="fil0" id="11"/><path d="M9419 490c-7 17-2 39 24 39 46 0 5-56 28-82 117-119 476-78 841-24-54 173-82 279-108 387-75 308-117 632 44 671 46 11 67-2 93-34 49-61 173-262 308-490 5-8-10-15-16-6-134 229-258 426-308 489-28 35-44 35-57-6-36-124 6-368 63-604 25-106 57-210 108-390 412 56 793 104 860-56 8-18 0-39-29-37-44 4-2 61-26 80-116 89-450 46-800-4l21-63c13-41-119-50-132-7l-15 50c-422-58-813-101-899 87z" class="fil0" id="12"/><path d="M10856 864c0-32-15-60-65-73-72-18-150 24-168 93-28 104 78 199 104 340-122 52-228 101-251 212-16 82 41 140 147 123 207-35 264-210 220-366 75-34 176-82 269-236 6-8-10-15-15-6-73 121-153 184-259 227-26-86-129-205-122-290 3-37 29-73 75-73 24 0 47 17 47 49 0 11 18 11 18 0zm-127 375c18 123-20 285-145 305-70 11-103-43-90-110 20-98 121-148 235-195z" class="fil0" id="13"/><path d="M11843 951c-140 234-231 307-355 383l96-476c10-39-122-41-135 0-28 93-158 376-264 439-18 11-29 2-31-17-5-59 39-230 83-370 10-44-125-44-135-2-18 67-49 203-49 292 0 67 41 169 140 110 90-54 194-253 235-350l-83 443c-139 83-365 200-398 392-13 80 10 177 119 184 230 13 331-278 380-467 16-54 26-107 39-159 135-80 228-151 373-396 5-8-10-15-15-6zm-500 474c-29 141-73 309-145 428-91 145-259 132-233-54 28-189 264-309 378-374z" class="fil0" id="14"/><path d="M12598 951c-95 158-209 309-277 368-10 8-28 28-38 8-29-49 18-190 33-300 8-61 24-169-59-193-44-13-73 4-99 32-28 31-64 96-80 122l-160 290c-70 130 62-364 64-370 11-42-121-42-134 0-24 90-50 194-65 292-10 58-3 132 75 134 52 2 67-32 85-65 55-102 96-173 148-268 39-72 140-238 101-46-21 98-93 351 67 396 31 9 52 0 75-21 70-67 171-191 280-373 5-8-10-15-16-6z" class="fil0" id="15"/></g></svg>